# xmcd CD database file
#
# Track frame offsets:
#	150
#	17022
#	33847
#
# Disc length: 671 seconds
#
# Revision: 0
# Processed by: cddbd v1.5PL3 Copyright (c) Steve Scherf et al.
# Submitted via: CDex 1.51
#
DISCID=16029d03
DTITLE=森高千里 - 夏の日
DYEAR=1994
DGENRE=JPop
TTITLE0=夏の日
TTITLE1=こわい夢
TTITLE2=夏の日 (Original Karaoke)
EXTD=YEAR: 1994
EXTT0=
EXTT1=
EXTT2=
PLAYORDER=
